<?xml version="1.0" encoding="UTF-8" standalone="no"?>
<!-- Created with Inkscape (http://www.inkscape.org/) -->

<svg
   xmlns:dc="http://purl.org/dc/elements/1.1/"
   xmlns:cc="http://creativecommons.org/ns#"
   xmlns:rdf="http://www.w3.org/1999/02/22-rdf-syntax-ns#"
   xmlns:svg="http://www.w3.org/2000/svg"
   xmlns="http://www.w3.org/2000/svg"
   xmlns:sodipodi="http://sodipodi.sourceforge.net/DTD/sodipodi-0.dtd"
   xmlns:inkscape="http://www.inkscape.org/namespaces/inkscape"
   width="72.941833mm"
   height="72.941833mm"
   viewBox="0 0 258.45532 258.45531"
   id="svg2"
   version="1.1"
   inkscape:version="0.91 r13725"
   sodipodi:docname="favicon.svg">
  <defs
     id="defs4" />
  <sodipodi:namedview
     id="base"
     pagecolor="#ffffff"
     bordercolor="#666666"
     borderopacity="1.0"
     inkscape:pageopacity="0.0"
     inkscape:pageshadow="2"
     inkscape:zoom="1.6415373"
     inkscape:cx="32.242397"
     inkscape:cy="134.46422"
     inkscape:document-units="px"
     inkscape:current-layer="layer1"
     showgrid="false"
     fit-margin-top="0"
     fit-margin-left="0"
     fit-margin-right="0"
     fit-margin-bottom="0"
     inkscape:window-width="1920"
     inkscape:window-height="1019"
     inkscape:window-x="0"
     inkscape:window-y="32"
     inkscape:window-maximized="1" />
  <metadata
     id="metadata7">
    <rdf:RDF>
      <cc:Work
         rdf:about="">
        <dc:format>image/svg+xml</dc:format>
        <dc:type
           rdf:resource="http://purl.org/dc/dcmitype/StillImage" />
        <dc:title></dc:title>
      </cc:Work>
    </rdf:RDF>
  </metadata>
  <g
     inkscape:label="Livello 1"
     inkscape:groupmode="layer"
     id="layer1"
     transform="translate(-249.40953,-340.31754)">
    <rect
       style="opacity:1;fill:#008080;fill-opacity:1;stroke:none;stroke-width:1;stroke-linecap:round;stroke-linejoin:bevel;stroke-miterlimit:4;stroke-dasharray:none;stroke-opacity:1"
       id="rect4136"
       width="258.45532"
       height="258.45532"
       x="249.40953"
       y="340.31754"
       ry="21.537901" />
    <g
       id="g4301">
      <path
         id="path4142"
         d="m 356.32031,369.16992 a 6.3118203,6.3118203 0 1 0 0,12.62305 l 16.53321,0 0,19.50195 a 4.7447972,4.7447972 0 1 0 9.48828,0 l 0,-19.50195 16.53125,0 a 6.3118203,6.3118203 0 1 0 0,-12.62305 l -42.55274,0 z"
         style="color:#000000;font-style:normal;font-variant:normal;font-weight:normal;font-stretch:normal;font-size:medium;line-height:normal;font-family:sans-serif;text-indent:0;text-align:start;text-decoration:none;text-decoration-line:none;text-decoration-style:solid;text-decoration-color:#000000;letter-spacing:normal;word-spacing:normal;text-transform:none;direction:ltr;block-progression:tb;writing-mode:lr-tb;baseline-shift:baseline;text-anchor:start;white-space:normal;clip-rule:nonzero;display:inline;overflow:visible;visibility:visible;opacity:1;isolation:auto;mix-blend-mode:normal;color-interpolation:sRGB;color-interpolation-filters:linearRGB;solid-color:#000000;solid-opacity:1;fill:#ffffff;fill-opacity:1;fill-rule:evenodd;stroke:none;stroke-width:12.62237835;stroke-linecap:round;stroke-linejoin:miter;stroke-miterlimit:4;stroke-dasharray:none;stroke-dashoffset:0;stroke-opacity:1;color-rendering:auto;image-rendering:auto;shape-rendering:auto;text-rendering:auto;enable-background:accumulate"
         inkscape:connector-curvature="0" />
      <path
         transform="matrix(1.1068643,0,0,1.1068643,-36.484693,-47.520205)"
         d="m 374.36914,403.40039 c -1.15949,0.0175 -2.19826,1.08854 -2.18164,2.24805 a 1.9632287,1.9632287 0 0 1 0,0.0273 l 0,17.06055 a 1.9632287,1.9632287 0 0 1 0,0.0176 c -0.0104,1.16678 1.04802,2.23632 2.21484,2.23632 1.16683,0 2.22725,-1.06954 2.2168,-2.23632 a 1.9632287,1.9632287 0 0 1 0,-0.0176 l 0,-17.06055 a 1.9632287,1.9632287 0 0 1 0,-0.0273 c 0.0169,-1.18195 -1.06807,-2.26608 -2.25,-2.24805 z m 37.32422,9.66016 c -0.79014,-0.007 -1.56775,0.44494 -1.95313,1.13476 a 1.9632287,1.9632287 0 0 1 -0.0137,0.0234 l -8.52929,14.77539 a 1.9632287,1.9632287 0 0 1 -0.0215,0.0391 c -0.61061,1.00568 -0.2318,2.48011 0.78711,3.06836 1.01892,0.58825 2.48518,0.17815 3.05078,-0.85351 a 1.9632287,1.9632287 0 0 1 0.0215,-0.0391 l 8.53125,-14.77343 a 1.9632287,1.9632287 0 0 1 0.0137,-0.0234 c 0.39759,-0.66621 0.40962,-1.54643 0.0293,-2.22266 -0.38033,-0.67622 -1.13826,-1.12264 -1.91407,-1.1289 a 1.9632287,1.9632287 0 0 1 -0.002,0 z m -74.48438,0.61133 c -0.7639,0.0295 -1.49865,0.48629 -1.86328,1.1582 -0.36462,0.67191 -0.34667,1.53485 0.0449,2.1914 a 1.9632287,1.9632287 0 0 1 0.0137,0.0234 l 8.53125,14.77344 a 1.9632287,1.9632287 0 0 1 0.0215,0.0391 c 0.56558,1.0317 2.03185,1.44178 3.05078,0.85352 1.01894,-0.58826 1.39776,-2.06269 0.78711,-3.06836 a 1.9632287,1.9632287 0 0 1 -0.0215,-0.0391 l -8.5293,-14.7754 a 1.9632287,1.9632287 0 0 1 -0.0137,-0.0234 c -0.39645,-0.70925 -1.20958,-1.16448 -2.02149,-1.13281 z m 101.98633,26.39453 c -0.4205,-0.0134 -0.84376,0.095 -1.20508,0.31054 a 1.9632287,1.9632287 0 0 1 -0.0254,0.0137 l -14.77539,8.5293 a 1.9632287,1.9632287 0 0 1 -0.0371,0.0215 c -1.03166,0.56559 -1.44176,2.03186 -0.85351,3.05078 0.58825,1.01891 2.06269,1.39772 3.06836,0.78711 a 1.9632287,1.9632287 0 0 1 0.0391,-0.0215 l 14.77539,-8.52929 a 1.9632287,1.9632287 0 0 1 0.0234,-0.0137 c 0.83794,-0.46848 1.29734,-1.5262 1.07031,-2.45898 -0.22703,-0.93278 -1.12057,-1.65844 -2.08008,-1.68945 z M 310.375,441.11914 c -0.98531,-0.0371 -1.95043,0.66784 -2.2168,1.61719 -0.26636,0.94934 0.19192,2.05237 1.05274,2.5332 a 1.9632287,1.9632287 0 0 1 0.0254,0.0137 l 14.77539,8.53125 a 1.9632287,1.9632287 0 0 1 0.0137,0.008 c 1.00533,0.59267 2.46154,0.20997 3.04492,-0.80079 0.58338,-1.01075 0.18797,-2.46308 -0.82812,-3.0371 a 1.9632287,1.9632287 0 0 1 -0.0156,-0.01 l -14.77539,-8.5293 a 1.9632287,1.9632287 0 0 1 -0.0254,-0.0137 c -0.31708,-0.18933 -0.68174,-0.29836 -1.05078,-0.3125 z m 121.85352,36.05469 c -1.17717,-0.0275 -2.26954,1.03736 -2.26954,2.21484 0,1.17749 1.09237,2.24238 2.26954,2.21485 a 1.9632287,1.9632287 0 0 1 0.0449,0 l 17.06054,0 a 1.9632287,1.9632287 0 0 1 0.0449,0 c 1.17716,0.0275 2.26953,-1.03736 2.26953,-2.21485 0,-1.17748 -1.09237,-2.24237 -2.26953,-2.21484 a 1.9632287,1.9632287 0 0 1 -0.0449,0 l -17.06054,0 a 1.9632287,1.9632287 0 0 1 -0.0449,0 z m -131.55664,1.21679 c -1.16669,-0.0103 -2.23438,1.04812 -2.23438,2.21485 0,1.16673 1.06769,2.22708 2.23438,2.2168 a 1.9632287,1.9632287 0 0 1 0.0176,0 l 17.06055,0 a 1.9632287,1.9632287 0 0 1 0.0176,0 c 1.16668,0.0103 2.23437,-1.05007 2.23437,-2.2168 0,-1.16673 -1.06769,-2.22513 -2.23437,-2.21485 a 1.9632287,1.9632287 0 0 1 -0.0176,0 l -17.06055,0 a 1.9632287,1.9632287 0 0 1 -0.0176,0 z m 124.26757,27.4668 c -0.9853,-0.0371 -1.95043,0.66784 -2.21679,1.61719 -0.26637,0.94934 0.19191,2.05237 1.05273,2.5332 a 1.9632287,1.9632287 0 0 1 0.0234,0.0137 l 14.77539,8.5293 a 1.9632287,1.9632287 0 0 1 0.0156,0.008 c 1.00533,0.59268 2.46155,0.20998 3.04493,-0.80078 0.58337,-1.01075 0.18796,-2.46308 -0.82813,-3.03711 a 1.9632287,1.9632287 0 0 1 -0.0156,-0.01 l -14.7754,-8.5293 a 1.9632287,1.9632287 0 0 1 -0.0234,-0.0137 c -0.31718,-0.18898 -0.68379,-0.29672 -1.05274,-0.31055 z m -99.08984,1.05469 c -0.4205,-0.0134 -0.84377,0.095 -1.20508,0.31055 a 1.9632287,1.9632287 0 0 1 -0.0234,0.0137 l -14.77539,8.53125 a 1.9632287,1.9632287 0 0 1 -0.0391,0.0215 c -1.03166,0.5656 -1.44176,2.03187 -0.85352,3.05078 0.58825,1.01892 2.06269,1.39773 3.06836,0.78711 a 1.9632287,1.9632287 0 0 1 0.0391,-0.0215 l 14.77539,-8.5293 a 1.9632287,1.9632287 0 0 1 0.0234,-0.0156 c 0.83891,-0.46803 1.30133,-1.52558 1.07421,-2.45899 -0.22712,-0.9334 -1.12382,-1.65918 -2.08398,-1.68945 z m 78.20703,20.10547 c -0.7639,0.0295 -1.49865,0.48629 -1.86328,1.1582 -0.36463,0.67191 -0.34668,1.53485 0.0449,2.19141 a 1.9632287,1.9632287 0 0 1 0.0137,0.0234 l 8.5293,14.77344 a 1.9632287,1.9632287 0 0 1 0.01,0.0176 c 0.57403,1.01609 2.02635,1.4115 3.0371,0.82813 1.01076,-0.58338 1.39346,-2.0396 0.80079,-3.04493 a 1.9632287,1.9632287 0 0 1 -0.008,-0.0137 l -8.53125,-14.77539 a 1.9632287,1.9632287 0 0 1 -0.0137,-0.0254 c -0.39629,-0.70892 -1.20796,-1.16409 -2.01953,-1.13281 z m -57.09961,0.60742 c -0.79014,-0.007 -1.56774,0.44494 -1.95312,1.13477 a 1.9632287,1.9632287 0 0 1 -0.0137,0.0254 l -8.53125,14.77539 a 1.9632287,1.9632287 0 0 1 -0.008,0.0137 c -0.59259,1.00532 -0.20993,2.46157 0.80078,3.04492 1.01071,0.58336 2.46304,0.18789 3.03711,-0.82812 a 1.9632287,1.9632287 0 0 1 0.01,-0.0176 L 348.82812,531 a 1.9632287,1.9632287 0 0 1 0.0137,-0.0234 c 0.39751,-0.66606 0.40937,-1.54454 0.0293,-2.2207 -0.38008,-0.67616 -1.13842,-1.12424 -1.91406,-1.13086 z m 28.63086,7.35938 c -1.15949,0.0175 -2.19826,1.08854 -2.18164,2.24804 a 1.9632287,1.9632287 0 0 1 0,0.0273 l 0,17.06054 a 1.9632287,1.9632287 0 0 1 0,0.0176 c -0.0104,1.16678 1.04802,2.23633 2.21484,2.23633 1.16683,0 2.22725,-1.06955 2.2168,-2.23633 a 1.9632287,1.9632287 0 0 1 0,-0.0176 l 0,-17.06054 a 1.9632287,1.9632287 0 0 1 0,-0.0273 c 0.0169,-1.18194 -1.06807,-2.26608 -2.25,-2.24804 z"
         id="path4257"
         style="color:#000000;font-style:normal;font-variant:normal;font-weight:normal;font-stretch:normal;font-size:medium;line-height:normal;font-family:sans-serif;text-indent:0;text-align:start;text-decoration:none;text-decoration-line:none;text-decoration-style:solid;text-decoration-color:#000000;letter-spacing:normal;word-spacing:normal;text-transform:none;direction:ltr;block-progression:tb;writing-mode:lr-tb;baseline-shift:baseline;text-anchor:start;white-space:normal;clip-rule:nonzero;display:inline;overflow:visible;visibility:visible;opacity:1;isolation:auto;mix-blend-mode:normal;color-interpolation:sRGB;color-interpolation-filters:linearRGB;solid-color:#000000;solid-opacity:1;fill:#ffffff;fill-opacity:1;fill-rule:evenodd;stroke:none;stroke-width:8.35691929;stroke-linecap:round;stroke-linejoin:miter;stroke-miterlimit:4;stroke-dasharray:none;stroke-dashoffset:0;stroke-opacity:1;color-rendering:auto;image-rendering:auto;shape-rendering:auto;text-rendering:auto;enable-background:accumulate"
         inkscape:original="M 374.33984 401.4375 A 4.1788775 4.1788775 0 0 0 370.22461 405.67578 L 370.22461 422.73633 A 4.1788775 4.1788775 0 1 0 378.58203 422.73633 L 378.58203 405.67578 A 4.1788775 4.1788775 0 0 0 374.33984 401.4375 z M 411.71094 411.09766 A 4.1788775 4.1788775 0 0 0 408.02734 413.23828 L 399.49805 428.01367 A 4.1788775 4.1788775 0 1 0 406.73438 432.19141 L 415.26562 417.41797 A 4.1788775 4.1788775 0 0 0 411.71094 411.09766 z M 337.13281 411.71094 A 4.1788775 4.1788775 0 0 0 333.70508 418.02734 L 342.23633 432.80078 A 4.1788775 4.1788775 0 1 0 349.47266 428.62305 L 340.94336 413.84766 A 4.1788775 4.1788775 0 0 0 337.13281 411.71094 z M 439.25781 438.10352 A 4.1788775 4.1788775 0 0 0 436.98438 438.69141 L 422.20898 447.2207 A 4.1788775 4.1788775 0 1 0 426.38672 454.45703 L 441.16211 445.92773 A 4.1788775 4.1788775 0 0 0 439.25781 438.10352 z M 310.44922 439.1582 A 4.1788775 4.1788775 0 0 0 308.25391 446.98242 L 323.0293 455.51367 A 4.1788775 4.1788775 0 1 0 327.20703 448.27539 L 312.43164 439.74609 A 4.1788775 4.1788775 0 0 0 310.44922 439.1582 z M 432.27344 475.21094 A 4.1788775 4.1788775 0 1 0 432.27344 483.56641 L 449.33398 483.56641 A 4.1788775 4.1788775 0 1 0 449.33398 475.21094 L 432.27344 475.21094 z M 300.68945 476.42773 A 4.1788775 4.1788775 0 1 0 300.68945 484.78516 L 317.75 484.78516 A 4.1788775 4.1788775 0 1 0 317.75 476.42773 L 300.68945 476.42773 z M 425.01367 503.89648 A 4.1788775 4.1788775 0 0 0 422.81836 511.7207 L 437.59375 520.25 A 4.1788775 4.1788775 0 1 0 441.77148 513.01172 L 426.99609 504.48242 A 4.1788775 4.1788775 0 0 0 425.01367 503.89648 z M 325.91211 504.94922 A 4.1788775 4.1788775 0 0 0 323.63867 505.53711 L 308.86328 514.06836 A 4.1788775 4.1788775 0 1 0 313.04102 521.30469 L 327.81641 512.77539 A 4.1788775 4.1788775 0 0 0 325.91211 504.94922 z M 403.98047 525.05664 A 4.1788775 4.1788775 0 0 0 400.55273 531.37305 L 409.08203 546.14648 A 4.1788775 4.1788775 0 1 0 416.32031 541.96875 L 407.78906 527.19336 A 4.1788775 4.1788775 0 0 0 403.98047 525.05664 z M 346.97461 525.66211 A 4.1788775 4.1788775 0 0 0 343.29102 527.80273 L 334.75977 542.57812 A 4.1788775 4.1788775 0 1 0 341.99805 546.75586 L 350.52734 531.98242 A 4.1788775 4.1788775 0 0 0 346.97461 525.66211 z M 375.55859 533.02148 A 4.1788775 4.1788775 0 0 0 371.44336 537.25977 L 371.44336 554.32031 A 4.1788775 4.1788775 0 1 0 379.80078 554.32031 L 379.80078 537.25977 A 4.1788775 4.1788775 0 0 0 375.55859 533.02148 z "
         inkscape:radius="-1.9630324"
         sodipodi:type="inkscape:offset" />
      <path
         inkscape:connector-curvature="0"
         id="path4259"
         d="m 379.32227,397.60352 c -47.44155,-0.37779 -86.37698,37.87561 -86.83985,85.3164 a 6.9006901,6.9006901 0 0 0 0.004,0.18946 6.9006901,6.9006901 0 0 0 -0.008,0.42773 c -0.12255,47.44289 38.33865,86.17518 85.78125,86.38281 47.44259,0.20763 86.24244,-38.1848 86.53515,-85.62695 0.29271,-47.44215 -38.03111,-86.31167 -85.47265,-86.68945 z m -0.10938,13.79882 c 39.99246,0.31847 72.02995,32.81172 71.7832,72.80469 -0.24674,39.99297 -32.68243,72.08714 -72.67578,71.91211 -39.99334,-0.17503 -72.14627,-32.55133 -72.04297,-72.54492 a 6.9006901,6.9006901 0 0 0 -0.006,-0.19531 6.9006901,6.9006901 0 0 0 0.01,-0.32422 c 0.39019,-39.99183 32.93918,-71.97081 72.93164,-71.65235 z"
         style="color:#000000;font-style:normal;font-variant:normal;font-weight:normal;font-stretch:normal;font-size:medium;line-height:normal;font-family:sans-serif;text-indent:0;text-align:start;text-decoration:none;text-decoration-line:none;text-decoration-style:solid;text-decoration-color:#000000;letter-spacing:normal;word-spacing:normal;text-transform:none;direction:ltr;block-progression:tb;writing-mode:lr-tb;baseline-shift:baseline;text-anchor:start;white-space:normal;clip-rule:nonzero;display:inline;overflow:visible;visibility:visible;opacity:1;isolation:auto;mix-blend-mode:normal;color-interpolation:sRGB;color-interpolation-filters:linearRGB;solid-color:#000000;solid-opacity:1;fill:#ffffff;fill-opacity:1;fill-rule:nonzero;stroke:none;stroke-width:13.80000019;stroke-linecap:round;stroke-linejoin:round;stroke-miterlimit:4;stroke-dasharray:none;stroke-dashoffset:0;stroke-opacity:1;color-rendering:auto;image-rendering:auto;shape-rendering:auto;text-rendering:auto;enable-background:accumulate" />
      <path
         id="path4263"
         d="m 341.86719,386.48438 a 4.4837628,4.4837628 0 0 0 -2.44141,0.63085 l -26.17773,15.11329 a 4.4837628,4.4837628 0 1 0 4.48242,7.76562 l 10.16992,-5.87109 6.92773,11.99804 a 3.3706574,3.3706574 0 1 0 5.8379,-3.37109 l -6.92774,-11.99805 10.16992,-5.87109 a 4.4837628,4.4837628 0 0 0 -2.04101,-8.39648 z"
         style="color:#000000;font-style:normal;font-variant:normal;font-weight:normal;font-stretch:normal;font-size:medium;line-height:normal;font-family:sans-serif;text-indent:0;text-align:start;text-decoration:none;text-decoration-line:none;text-decoration-style:solid;text-decoration-color:#000000;letter-spacing:normal;word-spacing:normal;text-transform:none;direction:ltr;block-progression:tb;writing-mode:lr-tb;baseline-shift:baseline;text-anchor:start;white-space:normal;clip-rule:nonzero;display:inline;overflow:visible;visibility:visible;opacity:1;isolation:auto;mix-blend-mode:normal;color-interpolation:sRGB;color-interpolation-filters:linearRGB;solid-color:#000000;solid-opacity:1;fill:#ffffff;fill-opacity:1;fill-rule:evenodd;stroke:none;stroke-width:8.96662903;stroke-linecap:round;stroke-linejoin:miter;stroke-miterlimit:4;stroke-dasharray:none;stroke-dashoffset:0;stroke-opacity:1;color-rendering:auto;image-rendering:auto;shape-rendering:auto;text-rendering:auto;enable-background:accumulate"
         inkscape:connector-curvature="0" />
      <path
         id="path4269"
         d="m 415.8418,383.53516 a 4.4837628,4.4837628 0 0 0 -2.35547,8.39648 l 10.17187,5.87109 -6.92773,11.99805 a 3.370588,3.370588 0 1 0 5.83789,3.36914 l 6.92578,-11.99609 10.16992,5.87109 a 4.4837628,4.4837628 0 1 0 4.48438,-7.76562 L 417.9707,384.16602 a 4.4837628,4.4837628 0 0 0 -2.1289,-0.63086 z"
         style="color:#000000;font-style:normal;font-variant:normal;font-weight:normal;font-stretch:normal;font-size:medium;line-height:normal;font-family:sans-serif;text-indent:0;text-align:start;text-decoration:none;text-decoration-line:none;text-decoration-style:solid;text-decoration-color:#000000;letter-spacing:normal;word-spacing:normal;text-transform:none;direction:ltr;block-progression:tb;writing-mode:lr-tb;baseline-shift:baseline;text-anchor:start;white-space:normal;clip-rule:nonzero;display:inline;overflow:visible;visibility:visible;opacity:1;isolation:auto;mix-blend-mode:normal;color-interpolation:sRGB;color-interpolation-filters:linearRGB;solid-color:#000000;solid-opacity:1;fill:#ffffff;fill-opacity:1;fill-rule:evenodd;stroke:none;stroke-width:8.96662903;stroke-linecap:round;stroke-linejoin:miter;stroke-miterlimit:4;stroke-dasharray:none;stroke-dashoffset:0;stroke-opacity:1;color-rendering:auto;image-rendering:auto;shape-rendering:auto;text-rendering:auto;enable-background:accumulate"
         inkscape:connector-curvature="0" />
      <path
         inkscape:connector-curvature="0"
         id="path4273"
         d="m 418.59766,456.56641 a 4.8504849,4.8504849 0 0 0 -2.6211,0.75195 L 380.625,478.98438 351.42578,462.69922 a 4.8504849,4.8504849 0 1 0 -4.72461,8.47266 l 34.1543,19.04687 40.18945,-24.63086 a 4.8504849,4.8504849 0 0 0 -2.44726,-9.02148 z"
         style="color:#000000;font-style:normal;font-variant:normal;font-weight:normal;font-stretch:normal;font-size:medium;line-height:normal;font-family:sans-serif;text-indent:0;text-align:start;text-decoration:none;text-decoration-line:none;text-decoration-style:solid;text-decoration-color:#000000;letter-spacing:normal;word-spacing:normal;text-transform:none;direction:ltr;block-progression:tb;writing-mode:lr-tb;baseline-shift:baseline;text-anchor:start;white-space:normal;clip-rule:nonzero;display:inline;overflow:visible;visibility:visible;opacity:1;isolation:auto;mix-blend-mode:normal;color-interpolation:sRGB;color-interpolation-filters:linearRGB;solid-color:#000000;solid-opacity:1;fill:#ffffff;fill-opacity:1;fill-rule:evenodd;stroke:none;stroke-width:9.69999981;stroke-linecap:round;stroke-linejoin:miter;stroke-miterlimit:4;stroke-dasharray:none;stroke-dashoffset:0;stroke-opacity:1;color-rendering:auto;image-rendering:auto;shape-rendering:auto;text-rendering:auto;enable-background:accumulate" />
    </g>
  </g>
</svg>
